<?xml version="1.0" encoding="utf-8"?>
<!-- Generator: Adobe Illustrator 28.2.0, SVG Export Plug-In . SVG Version: 6.00 Build 0)  -->
<svg version="1.1" id="Layer_1" xmlns="http://www.w3.org/2000/svg" xmlns:xlink="http://www.w3.org/1999/xlink" x="0px" y="0px"
	 viewBox="0 0 716 138" style="enable-background:new 0 0 716 138;" xml:space="preserve">
<style type="text/css">
	.st0{fill:none;stroke:#FFFFFF;stroke-width:1.887;stroke-linecap:round;stroke-miterlimit:10;}
	.st1{fill:#80C99C;}
</style>
<g>
	<path class="st0" d="M390.65,49.64c3.69,0.34,7.3,1.65,10.09,4.13c4.98,4.43,6.18,11.63,4.66,17.89c-1.76,7.26-7.01,13-13.06,17.11
		c-3.25,2.21-6.74,4.06-10.38,5.56l-0.91,0.37"/>
	<path class="st0" d="M381,94.7c-45.04,17.69-266.39,17.83-418.69-92.81"/>
	<path class="st0" d="M372.32,57.09c-3.9,5.05-4.99,11.79-3.95,17.98c1.07,6.36,4.28,12.4,9.04,16.77c0.93,0.86,1.92,1.66,2.94,2.39
		c0.23,0.17,0.46,0.32,0.69,0.48"/>
	<path class="st0" d="M735.39,54.73C703.24,43.02,639.96,49.7,617,55.91c-23.2,6.28-45.17,16.22-67.07,25.95
		c-39.62,17.62-82.18,35.65-126.51,28.87c-15.03-2.3-29.85-7.46-42.42-16.03"/>
	<g>
		<path class="st1" d="M384.76,45.06c-0.53-0.39-1.28-0.28-1.67,0.26c-1.26,1.71-2.91,3.33-5.33,5.22l-2.89,2.08
			c-0.54,0.38-0.66,1.13-0.28,1.67c0.15,0.2,0.34,0.34,0.56,0.42c0.36,0.13,0.78,0.09,1.11-0.15l2.93-2.1
			c2.64-2.06,4.43-3.82,5.83-5.72C385.4,46.19,385.29,45.45,384.76,45.06"/>
		<path class="st1" d="M386.9,43.5c0.25-0.6-0.02-1.29-0.61-1.56c-0.02-0.01-0.05-0.02-0.07-0.03c-0.58-0.21-1.23,0.05-1.49,0.62h0
			v0c0,0.01-0.01,0.01-0.01,0.02l0,0c-0.25,0.6,0.02,1.29,0.61,1.56c0.02,0.01,0.05,0.02,0.07,0.03c0.58,0.22,1.23-0.05,1.49-0.61
			c0,0,0,0,0,0C386.9,43.51,386.9,43.5,386.9,43.5L386.9,43.5z"/>
		<path class="st1" d="M377.61,48.34L377.61,48.34l1.98-1.55c4.95-3.87,5.82-11.05,1.94-16l-1.55-1.98
			c-0.41-0.52-1.16-0.61-1.68-0.2l-1.98,1.55c-3.85,3.02-5.22,8.03-3.81,12.44c-2.28-0.57-4.78-0.12-6.76,1.43l-1.3,1.02
			c-0.52,0.41-0.61,1.16-0.2,1.68l1.02,1.29c0.91,1.16,2.1,2.03,3.45,2.53c0.57,0.21,1.17,0.36,1.79,0.44
			c2.09,0.25,4.15-0.32,5.81-1.62L377.61,48.34z"/>
	</g>
</g>
</svg>
