<?xml version="1.0" encoding="utf-8"?>
<!-- Generator: Adobe Illustrator 28.2.0, SVG Export Plug-In . SVG Version: 6.00 Build 0)  -->
<svg version="1.1" id="Layer_1" xmlns="http://www.w3.org/2000/svg" xmlns:xlink="http://www.w3.org/1999/xlink" x="0px" y="0px"
	 viewBox="0 0 24 24" style="enable-background:new 0 0 24 24;" xml:space="preserve">
<style type="text/css">
	.st0{fill:#FFDC38;}
	.st1{fill:none;stroke:#000000;stroke-linecap:round;}
</style>
<path class="st0" d="M4.4,20.8c0,0,1.1,2,8,2.1s7.3-2.3,7.3-2.3s0-7.3,0.6-11c0-4-0.3-7.5-5.4-6.7c-0.1,1.8-1.3,2-3,1.9
	s-2.9,0.2-3-2C8,2.5,4,2.7,4,6.1S4.4,20.8,4.4,20.8z"/>
<path class="st1" d="M12.5,9.6c-0.6-1.3-1.8-0.3-1.8,1v5.1c0,1.3,0.9,1.3,1.2,1.3C13.5,17,12.8,10.3,12.5,9.6z"/>
<path class="st1" d="M16.7,10.9c-0.6-1.1-1.6-0.3-1.6,0.8v4.3c0,1.1,0.8,1.1,1.1,1.1C17.5,17,16.9,11.4,16.7,10.9z"/>
<path class="st1" d="M8.4,13.6C7.9,12.9,7,13.4,7,14v2.4C7,17,7.7,17,7.9,17C9,17,8.6,13.9,8.4,13.6z"/>
<path class="st1" d="M8.9,2.8C8,2.5,4.5,2.7,4.2,5.3c-0.4,3.3,0,11.8,0,14.2c0,1.5,0.4,2.4,2.6,2.8c2.2,0.5,13.1,1.9,12.9-1.9
	C19.3,11.9,23.4,2.3,15,3 M9.5,1.4C11.3,0.6,15,1,15,2.5c0,1.9,0,2.4-1.7,2.4S9.8,5.3,9.4,4.4C9,3.5,8.9,2.2,9.3,1.7
	C9.3,1.6,9.4,1.5,9.5,1.4z"/>
</svg>
