<?xml version="1.0" encoding="utf-8"?>
<!-- Generator: Adobe Illustrator 28.2.0, SVG Export Plug-In . SVG Version: 6.00 Build 0)  -->
<svg version="1.1" id="Layer_1" xmlns="http://www.w3.org/2000/svg" xmlns:xlink="http://www.w3.org/1999/xlink" x="0px" y="0px"
	 viewBox="0 0 24 24" style="enable-background:new 0 0 24 24;" xml:space="preserve">
<style type="text/css">
	.st0{fill:#FFDC38;}
	.st1{fill:#FFDC38;stroke:#000000;stroke-linecap:round;}
	.st2{fill:none;stroke:#000000;stroke-linecap:round;}
</style>
<path class="st0" d="M17.5,11.7c0,0,0,6.6-13.5,7c-2.1-0.3-3.9-1.2-2.5-3.1s3-0.5,3.8-4.7S8,4,9.5,5.4c0.3,1.3,1.2,3.7,3.8,4.9
	S17.5,11.7,17.5,11.7z"/>
<path class="st1" d="M18.3,4.4c0.3-0.3,1-1.1,0.8-2.4 M18.6,4.8c0.3-0.3,1.1-0.9,2.4-0.7 M12,14l-1.3,2.3c-0.5,0.6-1.9,0.4-1.6-0.9
	c0.1-0.3,0.4-0.8,1.4-0.7c0.1,0,0.1-0.1,0.1-0.1c-0.4-0.8-0.9-2.4-0.1-2.8c0.8-0.4,1.1,1.3,1.1,2.2 M14,5.2
	c-0.1-0.9,0.3-2.5,2.1-2.5c1.8,0,2.1,1.5,1.8,2.3c0,0,0,0.1-0.1,0.1l-2.8,2.7c0,0-0.1,0.1-0.1,0.1c-0.6,0.1-1.7,0-1.9-0.9
	c-0.2-0.9,0.4-1.3,0.8-1.4C13.9,5.4,14,5.3,14,5.2z M17.8,8.8c1,0.1,2.8-0.3,2.8-2.1c0-1.7-1.6-2-2.5-1.8c0,0-0.1,0-0.1,0.1l-3,2.8
	c0,0-0.1,0.1-0.1,0.1c-0.1,0.6,0,1.7,1,1.9c0.9,0.2,1.4-0.4,1.6-0.8C17.6,8.9,17.7,8.8,17.8,8.8z"/>
<path class="st2" d="M18.2,9.7c0.3,0.5,0.3,1.1,0.2,1.3l4.5,3.4c0.2,0.5-0.2,0.5-0.5,0.5l-4.6-3.3c-4,0.9-9.3-5-8.3-6.4
	C9.9,4.7,10.8,4.6,12,5 M10.1,4.8C9,5,6.1,5.8,5.7,8.4c-0.5,3.3-0.1,4.9-3.4,6.7c-2.7,1.5-0.4,3.5,1,3.6C7.6,19,16.5,18,17.5,12.3
	 M8.9,22c1.6,0,2.9-0.1,3.9-0.2 M8.9,22l3.9-0.2 M8.9,22c-0.2,0-0.4,0-0.6,0 M11.4,20.8l5.9-0.6 M11.4,20.8c0.2,0,0.3-0.1,0.5-0.1
	 M11.4,20.8c-0.1,0-0.1,0-0.2,0 M6.4,22l7.8-0.4 M6.4,22c-0.5,0-0.9,0-1.2,0 M6.4,22c0.5,0,1.1,0,1.9,0 M14.2,21.6
	c0.2,0,0.4-0.1,0.5-0.1 M14.2,21.6c-0.2,0-0.5,0.1-0.7,0.1 M14.8,21.5l-9.5,0.5 M14.8,21.5c0.1,0,0.2,0,0.3-0.1 M5.3,21.9
	c-0.1,0-0.2,0-0.3,0 M12.8,21.8c0.2,0,0.5-0.1,0.7-0.1 M13.5,21.7L8.3,22 M15.5,21.3c0.1,0,0.2,0,0.2-0.1 M15.5,21.3
	c-0.1,0-0.3,0.1-0.5,0.1 M15.5,21.3l-4.7,0.3 M5,21.9c-0.1,0-0.1,0-0.2,0 M5,21.9l5.9-0.3 M4.8,21.9l6.5-0.4 M4.8,21.9
	c-0.1,0-0.2-0.1-0.2-0.1 M16,21.1c-0.1,0-0.2,0.1-0.3,0.1 M16,21.1l-4.7,0.3 M16,21.1c0.1,0,0.2-0.1,0.3-0.1 M15.7,21.2l-4.5,0.2
	 M15,21.4l-4.2,0.1 M4.6,21.8L16.3,21 M4.6,21.8c0,0,0.1-0.1,0.2-0.1 M16.3,21c0.1,0,0.1-0.1,0.2-0.1 M16.5,20.9L4.8,21.7
	 M16.5,20.9c0.1,0,0.2-0.1,0.2-0.1 M4.8,21.7c0.1,0,0.3-0.1,0.4-0.1 M5.3,21.6l11.4-0.8 M5.3,21.6c0.3,0,0.6-0.1,0.9-0.1 M16.7,20.8
	c0,0,0.1-0.1,0.1-0.1 M16.9,20.6L6.7,21.4 M16.9,20.6C16.9,20.6,17,20.6,16.9,20.6 M16.9,20.6C16.9,20.6,16.8,20.7,16.9,20.6
	 M6.7,21.4c0.4-0.1,0.9-0.1,1.4-0.2 M6.7,21.4c-0.2,0-0.3,0-0.5,0.1 M8.6,21.1l8.5-0.7 M8.6,21.1c0.8-0.1,1.6-0.2,2.1-0.2 M8.6,21.1
	c-0.2,0-0.3,0-0.5,0.1 M17.1,20.5C17.1,20.4,17.1,20.4,17.1,20.5 M17.1,20.5C17,20.5,17,20.5,17.1,20.5 M17.3,20.2
	C17.3,20.2,17.3,20.2,17.3,20.2 M17.3,20.2c0,0,0,0.1-0.1,0.1 M12.1,20.6c-0.1,0-0.2,0.1-0.3,0.1 M12.1,20.6l3.7-0.4 M12.1,20.6
	c0.1,0,0.2-0.1,0.3-0.1 M17.3,20C17.3,20,17.3,20,17.3,20 M17.3,20l-1.5,0.2 M17.3,20C17.3,20,17.3,20,17.3,20 M17.3,20.1l-5.4,0.6
	 M17.3,20.1C17.3,20.1,17.3,20.1,17.3,20.1 M11.1,20.8l6-0.5 M11.1,20.8c-0.1,0-0.3,0-0.4,0.1 M17.2,20.3
	C17.2,20.3,17.2,20.4,17.2,20.3 M17.1,20.4l-6.4,0.5 M17,20.5l-8.9,0.6 M6.2,21.4l10.6-0.8 M17.3,20.1l-1.5,0.1 M17.3,19.9
	c0,0,0-0.1,0-0.1 M17.3,19.9C17.3,19.9,17.3,19.9,17.3,19.9 M17.3,19.9l-2,0.3 M12.4,20.5c0.1,0,0.2-0.1,0.3-0.1 M12.4,20.5l2.9-0.4
	 M12.7,20.4l4.6-0.6 M12.7,20.4c0.1,0,0.2-0.1,0.2-0.1 M17.3,19.8C17.3,19.7,17.3,19.7,17.3,19.8 M17.3,19.9l-2,0.2 M13,20.3
	l4.3-0.6 M13,20.3c0.1,0,0.1-0.1,0.2-0.1 M17.3,19.7C17.3,19.7,17.3,19.7,17.3,19.7 M17.3,19.6l-4.1,0.6 M17.3,19.6
	C17.2,19.6,17.2,19.6,17.3,19.6 M13.2,20.2c0.1,0,0.1-0.1,0.2-0.1 M13.4,20.1l3.9-0.6 M13.4,20.1c0.1,0,0.1-0.1,0.2-0.1 M17.2,19.6
	C17.2,19.5,17.2,19.5,17.2,19.6 M17.2,19.5L13.6,20 M17.2,19.5C17.1,19.5,17.1,19.5,17.2,19.5 M13.6,20c0.1,0,0.1-0.1,0.2-0.1
	 M13.8,19.9l3.3-0.5 M13.8,19.9c0.1,0,0.1-0.1,0.2-0.1 M17.1,19.4C17.1,19.4,17,19.4,17.1,19.4 M17,19.4C17,19.3,16.9,19.3,17,19.4
	c-0.1-0.1-0.1-0.1-0.1-0.1 M17,19.4L14,19.8 M14,19.8c0.1,0,0.1-0.1,0.2-0.1 M14.2,19.8l2.7-0.5 M14.2,19.8c0.1,0,0.1-0.1,0.2-0.1
	 M16.9,19.3c0,0-0.1,0-0.1-0.1 M16.8,19.2l-2.4,0.4 M16.8,19.2c0,0-0.1,0-0.1-0.1 M14.4,19.7c0.1,0,0.1-0.1,0.2-0.1 M14.5,19.6
	l2.1-0.4 M14.5,19.6c0.1,0,0.1-0.1,0.2-0.1 M16.6,19.2c-0.1,0-0.1,0-0.2-0.1 M16.4,19.1l-1.7,0.4 M16.4,19.1c-0.1,0-0.2,0-0.3,0
	 M14.7,19.5c0.1,0,0.1-0.1,0.2-0.1 M14.9,19.4c0.4-0.2,0.8-0.3,1.2-0.3 M14.9,19.4l1.2-0.3"/>
</svg>
