<?xml version="1.0" encoding="utf-8"?>
<!-- Generator: Adobe Illustrator 28.2.0, SVG Export Plug-In . SVG Version: 6.00 Build 0)  -->
<svg version="1.1" id="Layer_1" xmlns="http://www.w3.org/2000/svg" xmlns:xlink="http://www.w3.org/1999/xlink" x="0px" y="0px"
	 viewBox="0 0 24 24" style="enable-background:new 0 0 24 24;" xml:space="preserve">
<style type="text/css">
	.st0{fill:#FFDC38;}
	.st1{fill:none;stroke:#000000;stroke-linecap:round;}
</style>
<path class="st0" d="M8.8,15.2L5.7,18c0,0-0.7-4.1-0.5-4.8c-1.6-1.1-4.3-3-4.3-3L2,9.6L21.6,6c0,0,2,0,1.4,1.2s-9.1,9-9.1,9
	L8.8,15.2z"/>
<path class="st1" d="M7.3,14.1c2.4-1.2,8.6-4.1,13.7-6.5 M6.3,11.9l6.3-2.2"/>
<path class="st1" d="M1.7,9.7L21.8,6c1-0.2,1.7,1.1,0.9,1.9l-8.5,8.2c-0.1,0.1-0.2,0.1-0.3,0.2c-0.6,0.1-2-0.3-3.4-0.8 M1,10.3
	c0.7,0.5,2.1,1.6,3.4,2.1c0.5,0.2,0.9,0.7,0.9,1.2c0,1.4,0.1,3.1,0.3,4.1c0.1,0.5,0.5,0.4,0.7-0.1c0-0.1,0.1-0.2,0.1-0.4 M6.1,17.9
	l4.4-2.5 M10.5,15.4c-0.4-0.1-0.7-0.3-1.1-0.4 M6.4,17.2l3.5-2L9.4,15 M6.4,17.2c0.1-0.2,0.1-0.4,0.2-0.6 M9.4,15l-2.8,1.6 M9.4,15
	c-0.2-0.1-0.4-0.2-0.6-0.3 M6.6,16.6c0.1-0.2,0.1-0.4,0.2-0.7 M6.8,15.9C6.9,15.7,7,15.5,7,15.3c0-0.1,0-0.1,0.1-0.1 M6.8,15.9
	l2-1.2 M8.8,14.7c-0.1,0-0.2-0.1-0.3-0.1c-0.1,0-0.1,0-0.2-0.1 M8.4,14.5c-0.5-0.1-1.1,0.1-1.3,0.6 M8.4,14.5l-1.3,0.6"/>
</svg>
