<?xml version="1.0" encoding="utf-8"?>
<!-- Generator: Adobe Illustrator 28.2.0, SVG Export Plug-In . SVG Version: 6.00 Build 0)  -->
<svg version="1.1" id="Layer_1" xmlns="http://www.w3.org/2000/svg" xmlns:xlink="http://www.w3.org/1999/xlink" x="0px" y="0px"
	 viewBox="0 0 24 24" style="enable-background:new 0 0 24 24;" xml:space="preserve">
<style type="text/css">
	.st0{fill:#FFDC38;stroke:#000000;stroke-linecap:round;}
	.st1{fill:none;stroke:#000000;stroke-linecap:round;}
</style>
<path class="st0" d="M23,11.6v7.5c0,0.1-0.1,0.2-0.2,0.2L3.8,20v-7.3l6.3-0.4l6.5-0.4L23,11.6z"/>
<path class="st1" d="M3.8,20l-0.2-0.1 M7.3,4l-0.3,6.9 M1,11.6v7.1c0,0.1,0,0.1,0.1,0.2L1.3,19 M7.5,4.1L7.2,11 M7.8,4.2l-0.3,7
	 M8.1,4.3l-0.3,7 M8.3,4.4l-0.2,7.1 M8.6,4.5l-0.3,7 M8.9,4.6l-0.3,7.1 M9.1,4.7l-0.3,7.1 M9.4,4.8L9,11.9 M9.6,4.9L9.3,12 M9.9,5
	l-0.3,7.1 M10,5.1l-0.2,7.2 M3.6,19.9v-7.3 M3.6,19.9l-0.2-0.1 M3.4,19.8v-7.3 M3.4,19.8l-0.3-0.1 M3.1,19.7v-7.3 M3.1,19.7
	l-0.2-0.1 M2.9,19.6v-7.3 M2.9,19.6l-0.3-0.1 M2.6,19.5v-7.3 M2.6,19.5l-0.2-0.1 M2.4,19.5v-7.3 M2.4,19.5l-0.3-0.1 M2.1,19.4v-7.3
	 M2.1,19.4l-0.3-0.1 M1.8,19.2V12 M1.8,19.2l-0.3-0.1 M1.5,19.1v-7.3 M1.5,19.1L1.3,19 M1.3,19v-7.3"/>
<path class="st0" d="M16.7,5.1h-6.6L10,5L9.9,5L9.7,4.9L9.4,4.8L9.2,4.7L8.9,4.6L8.6,4.5L8.3,4.4L8.1,4.3L7.8,4.2L7.5,4.1L7.3,4h6.2
	c0,0,0,0,0.1,0L16.7,5.1z"/>
<polygon class="st0" points="10.1,12.4 3.8,12.7 3.6,12.7 3.4,12.6 3.1,12.5 2.9,12.4 2.6,12.2 2.4,12.2 2.1,12.1 1.8,12 1.5,11.8 
	1.3,11.7 1,11.6 6.9,10.9 7.2,11 7.5,11.2 7.8,11.3 8.1,11.5 8.4,11.6 8.6,11.7 8.8,11.8 9,11.9 9.3,12 9.5,12.1 9.8,12.2 "/>
<polygon class="st0" points="16.7,5.1 16.6,10.8 16.5,12 10.1,12.4 10.1,5.1 "/>
<path class="st1" d="M10.1,19.3v-6.9 M16.5,12l-0.2,6.9"/>
<polygon class="st0" points="23,11.6 16.5,12 16.6,10.8 19.5,10.5 19.5,10.5 "/>
</svg>
